<!-- icon666.com - MILLIONS vector ICONS FREE --><svg viewBox="0 0 64 64" xmlns="http://www.w3.org/2000/svg"><g id="Layer_3" data-name="Layer 3"><path d="m13 52c1.53-10.352 5.13-23.547 14.38-28.869 10.19-5.867 23.7 13.416 29.62 23.869l-4 4-7-4.87v5.87z" fill="#dc1f27"></path><g fill="#a7ddf9"><path d="m26 15a1 1 0 0 1 -1-1v-3a1 1 0 0 1 2 0v3a1 1 0 0 1 -1 1z"></path><path d="m26 6a1 1 0 0 1 -1-1v-3a1 1 0 0 1 2 0v3a1 1 0 0 1 -1 1z"></path><path d="m21 11.958a1 1 0 0 1 -.5-1.864l2.5-1.459a1 1 0 0 1 1 1.728l-2.5 1.458a1 1 0 0 1 -.5.137z"></path><path d="m28.5 7.5a1 1 0 0 1 -.516-1.857l2.5-1.5a1 1 0 1 1 1.029 1.715l-2.5 1.5a1 1 0 0 1 -.513.142z"></path><path d="m23.5 7.5a1 1 0 0 1 -.514-.143l-2.5-1.5a1 1 0 0 1 1.029-1.715l2.5 1.5a1 1 0 0 1 -.515 1.858z"></path><path d="m31 11.958a1 1 0 0 1 -.5-.136l-2.5-1.459a1 1 0 0 1 1-1.728l2.5 1.458a1 1 0 0 1 -.5 1.864z"></path><circle cx="26" cy="8" r="1"></circle></g><path d="m54 26a1 1 0 0 1 -1-1v-3a1 1 0 0 1 2 0v3a1 1 0 0 1 -1 1z" fill="#98d3ed"></path><path d="m54 17a1 1 0 0 1 -1-1v-3a1 1 0 0 1 2 0v3a1 1 0 0 1 -1 1z" fill="#98d3ed"></path><path d="m49 22.958a1 1 0 0 1 -.5-1.864l2.5-1.459a1 1 0 0 1 1 1.728l-2.5 1.458a1 1 0 0 1 -.5.137z" fill="#98d3ed"></path><path d="m56.5 18.5a1 1 0 0 1 -.516-1.857l2.5-1.5a1 1 0 1 1 1.029 1.715l-2.5 1.5a1 1 0 0 1 -.513.142z" fill="#98d3ed"></path><path d="m51.5 18.5a1 1 0 0 1 -.514-.143l-2.5-1.5a1 1 0 0 1 1.029-1.715l2.5 1.5a1 1 0 0 1 -.515 1.858z" fill="#98d3ed"></path><path d="m59 22.958a1 1 0 0 1 -.5-.136l-2.5-1.459a1 1 0 1 1 1-1.728l2.5 1.458a1 1 0 0 1 -.5 1.864z" fill="#98d3ed"></path><circle cx="54" cy="19" fill="#98d3ed" r="1"></circle><path d="m7 36a1 1 0 0 1 -1-1v-3a1 1 0 0 1 2 0v3a1 1 0 0 1 -1 1z" fill="#a7ddf9"></path><path d="m7 27a1 1 0 0 1 -1-1v-3a1 1 0 0 1 2 0v3a1 1 0 0 1 -1 1z" fill="#a7ddf9"></path><path d="m2 32.958a1 1 0 0 1 -.5-1.864l2.5-1.459a1 1 0 1 1 1 1.728l-2.5 1.458a1 1 0 0 1 -.5.137z" fill="#a7ddf9"></path><path d="m9.5 28.5a1 1 0 0 1 -.516-1.857l2.5-1.5a1 1 0 1 1 1.029 1.715l-2.5 1.5a1 1 0 0 1 -.513.142z" fill="#a7ddf9"></path><path d="m4.5 28.5a1 1 0 0 1 -.514-.143l-2.5-1.5a1 1 0 1 1 1.029-1.715l2.5 1.5a1 1 0 0 1 -.515 1.858z" fill="#a7ddf9"></path><path d="m12 32.958a1 1 0 0 1 -.5-.136l-2.5-1.459a1 1 0 1 1 1-1.728l2.5 1.458a1 1 0 0 1 -.5 1.864z" fill="#a7ddf9"></path><circle cx="7" cy="29" fill="#a7ddf9" r="1"></circle><path d="m57 47-4 4-7-4.87v5.87h-14v-29.94c9.34.62 19.94 16 25 24.94z" fill="#981b1e"></path><rect fill="#e6e7e8" height="12" rx="3" width="41" x="9" y="51"></rect><path d="m50 54v6a3.009 3.009 0 0 1 -3 3h-15v-12h15a3.009 3.009 0 0 1 3 3z" fill="#d1d3d4"></path><circle cx="57" cy="51" fill="#d1d3d4" r="6"></circle></g></svg>